# Blender 5.0.1
# www.blender.org
o Cube
v -5.000000 -5.000000 5.000000
v -5.000000 5.000000 5.000000
v -5.000000 -5.000000 -5.000000
v -5.000000 5.000000 -5.000000
v 5.000000 -5.000000 5.000000
v 5.000000 5.000000 5.000000
v 5.000000 -5.000000 -5.000000
v 5.000000 5.000000 -5.000000
vn -1.0000 -0.0000 -0.0000
vn -0.0000 -0.0000 -1.0000
vn 1.0000 -0.0000 -0.0000
vn -0.0000 -0.0000 1.0000
vn -0.0000 -1.0000 -0.0000
vn -0.0000 1.0000 -0.0000
vt 1.000000 1.000000
vt 0.000000 0.000000
vt 0.000000 1.000000
vt 1.000000 0.000000
s 1
f 2/1/1 3/2/1 1/3/1
f 4/3/2 7/4/2 3/2/2
f 8/4/3 5/3/3 7/2/3
f 6/1/4 1/2/4 5/4/4
f 7/4/5 1/3/5 3/2/5
f 4/2/6 6/1/6 8/4/6
f 2/1/1 4/4/1 3/2/1
f 4/3/2 8/1/2 7/4/2
f 8/4/3 6/1/3 5/3/3
f 6/1/4 2/3/4 1/2/4
f 7/4/5 5/1/5 1/3/5
f 4/2/6 2/3/6 6/1/6
